<svg xmlns="http://www.w3.org/2000/svg" xmlns:xlink="http://www.w3.org/1999/xlink" width="250" zoomAndPan="magnify" viewBox="0 0 187.5 187.499992" height="250" preserveAspectRatio="xMidYMid meet" version="1.0"><defs><clipPath id="d3cef62ebd"><path d="M 0 25.828125 L 187 25.828125 L 187 161.21875 L 0 161.21875 Z M 0 25.828125 " clip-rule="nonzero"/></clipPath></defs><path fill="#59aae4" d="M 99.945312 99.972656 L 167.617188 99.972656 C 169.394531 99.972656 170.839844 98.527344 170.839844 96.746094 C 170.839844 94.96875 169.394531 93.523438 167.617188 93.523438 L 99.945312 93.523438 C 98.167969 93.523438 96.722656 94.96875 96.722656 96.746094 C 96.722656 98.527344 98.167969 99.972656 99.945312 99.972656 Z M 99.945312 99.972656 " fill-opacity="1" fill-rule="evenodd"/><path fill="#59aae4" d="M 99.945312 112.867188 L 157.949219 112.867188 C 159.726562 112.867188 161.171875 111.421875 161.171875 109.640625 C 161.171875 107.863281 159.726562 106.417969 157.949219 106.417969 L 99.945312 106.417969 C 98.167969 106.417969 96.722656 107.863281 96.722656 109.640625 C 96.722656 111.421875 98.167969 112.867188 99.945312 112.867188 Z M 99.945312 112.867188 " fill-opacity="1" fill-rule="evenodd"/><path fill="#59aae4" d="M 99.945312 125.757812 L 161.171875 125.757812 C 162.949219 125.757812 164.394531 124.316406 164.394531 122.535156 C 164.394531 120.757812 162.949219 119.3125 161.171875 119.3125 L 99.945312 119.3125 C 98.167969 119.3125 96.722656 120.757812 96.722656 122.535156 C 96.722656 124.316406 98.167969 125.757812 99.945312 125.757812 Z M 99.945312 125.757812 " fill-opacity="1" fill-rule="evenodd"/><path fill="#59aae4" d="M 99.945312 138.652344 L 137.003906 138.652344 C 138.78125 138.652344 140.226562 137.210938 140.226562 135.429688 C 140.226562 133.652344 138.78125 132.207031 137.003906 132.207031 L 99.945312 132.207031 C 98.167969 132.207031 96.722656 133.652344 96.722656 135.429688 C 96.722656 137.210938 98.167969 138.652344 99.945312 138.652344 Z M 99.945312 138.652344 " fill-opacity="1" fill-rule="evenodd"/><path fill="#59aae4" d="M 24.21875 87.078125 L 162.78125 87.078125 C 168.121094 87.078125 172.449219 82.746094 172.449219 77.40625 C 172.449219 72.066406 168.121094 67.734375 162.78125 67.734375 C 162.78125 67.734375 24.21875 67.734375 24.21875 67.734375 C 18.882812 67.734375 14.550781 72.066406 14.550781 77.40625 C 14.550781 82.746094 18.882812 87.078125 24.21875 87.078125 Z M 24.21875 87.078125 " fill-opacity="1" fill-rule="evenodd"/><g clip-path="url(#d3cef62ebd)"><path fill="#59aae4" d="M 186.953125 35.5 C 186.953125 30.160156 182.625 25.828125 177.285156 25.828125 L 9.71875 25.828125 C 4.378906 25.828125 0.0507812 30.160156 0.0507812 35.5 L 0.0507812 151.546875 C 0.0507812 156.890625 4.378906 161.21875 9.71875 161.21875 L 177.285156 161.21875 C 182.625 161.21875 186.953125 156.890625 186.953125 151.546875 Z M 180.507812 61.289062 L 180.507812 151.546875 C 180.507812 153.328125 179.0625 154.769531 177.285156 154.769531 C 177.285156 154.769531 9.71875 154.769531 9.71875 154.769531 C 7.9375 154.769531 6.496094 153.328125 6.496094 151.546875 L 6.496094 61.289062 Z M 17.773438 38.722656 C 20.441406 38.722656 22.605469 40.890625 22.605469 43.558594 C 22.605469 46.226562 20.441406 48.394531 17.773438 48.394531 C 15.105469 48.394531 12.941406 46.226562 12.941406 43.558594 C 12.941406 40.890625 15.105469 38.722656 17.773438 38.722656 Z M 33.886719 38.722656 C 36.554688 38.722656 38.71875 40.890625 38.71875 43.558594 C 38.71875 46.226562 36.554688 48.394531 33.886719 48.394531 C 31.21875 48.394531 29.050781 46.226562 29.050781 43.558594 C 29.050781 40.890625 31.21875 38.722656 33.886719 38.722656 Z M 49.996094 38.722656 C 52.664062 38.722656 54.832031 40.890625 54.832031 43.558594 C 54.832031 46.226562 52.664062 48.394531 49.996094 48.394531 C 47.328125 48.394531 45.164062 46.226562 45.164062 43.558594 C 45.164062 40.890625 47.328125 38.722656 49.996094 38.722656 Z M 49.996094 38.722656 " fill-opacity="1" fill-rule="evenodd"/></g><path fill="#59aae4" d="M 90.277344 101.582031 C 90.277344 99.445312 89.429688 97.394531 87.917969 95.882812 C 86.40625 94.371094 84.359375 93.523438 82.222656 93.523438 C 69.765625 93.523438 36.675781 93.523438 24.21875 93.523438 C 22.082031 93.523438 20.03125 94.371094 18.519531 95.882812 C 17.007812 97.394531 16.164062 99.445312 16.164062 101.582031 C 16.164062 110.847656 16.164062 131 16.164062 140.265625 C 16.164062 142.402344 17.007812 144.453125 18.519531 145.964844 C 20.03125 147.476562 22.082031 148.324219 24.21875 148.324219 C 36.675781 148.324219 69.765625 148.324219 82.222656 148.324219 C 84.359375 148.324219 86.40625 147.476562 87.917969 145.964844 C 89.429688 144.453125 90.277344 142.402344 90.277344 140.265625 Z M 69.160156 123.804688 C 70.253906 123.261719 70.945312 122.144531 70.945312 120.925781 C 70.945312 119.703125 70.253906 118.585938 69.160156 118.042969 L 46.605469 106.761719 C 45.605469 106.261719 44.417969 106.3125 43.46875 106.898438 C 42.519531 107.488281 41.941406 108.523438 41.941406 109.640625 L 41.941406 132.207031 C 41.941406 133.324219 42.519531 134.359375 43.46875 134.949219 C 44.417969 135.535156 45.605469 135.589844 46.605469 135.089844 Z M 60.515625 120.925781 L 48.386719 126.992188 C 48.386719 126.992188 48.386719 114.859375 48.386719 114.859375 Z M 60.515625 120.925781 " fill-opacity="1" fill-rule="evenodd"/></svg>