<svg xmlns="http://www.w3.org/2000/svg" xmlns:xlink="http://www.w3.org/1999/xlink" width="250" zoomAndPan="magnify" viewBox="0 0 187.5 187.499992" height="250" preserveAspectRatio="xMidYMid meet" version="1.0"><defs><clipPath id="cbda39cfc8"><path d="M 7.832031 0 L 179.125 0 L 179.125 187 L 7.832031 187 Z M 7.832031 0 " clip-rule="nonzero"/></clipPath></defs><g clip-path="url(#cbda39cfc8)"><path fill="#59aae4" d="M 133.835938 83.183594 C 138.832031 84.371094 143.601562 86.351562 147.976562 89.046875 L 155.921875 85.515625 C 156.683594 85.175781 157.535156 85.335938 158.125 85.925781 L 167.03125 94.832031 C 167.621094 95.425781 167.78125 96.273438 167.441406 97.039062 L 163.914062 104.984375 C 166.605469 109.359375 168.585938 114.132812 169.777344 119.128906 L 177.882812 122.25 C 178.660156 122.550781 179.148438 123.265625 179.148438 124.097656 L 179.148438 136.699219 C 179.148438 137.535156 178.660156 138.246094 177.882812 138.546875 L 169.773438 141.667969 C 168.585938 146.664062 166.605469 151.4375 163.914062 155.8125 L 167.441406 163.757812 C 167.78125 164.523438 167.621094 165.371094 167.03125 165.964844 L 158.125 174.871094 C 157.535156 175.464844 156.683594 175.621094 155.921875 175.28125 L 147.980469 171.753906 C 143.605469 174.449219 138.832031 176.429688 133.835938 177.617188 L 130.714844 185.726562 C 130.414062 186.503906 129.703125 186.996094 128.867188 186.996094 L 116.273438 186.996094 C 115.4375 186.996094 114.722656 186.503906 114.425781 185.726562 L 111.304688 177.617188 C 106.308594 176.425781 101.535156 174.445312 97.164062 171.753906 L 89.21875 175.28125 C 88.457031 175.621094 87.605469 175.464844 87.015625 174.871094 L 78.109375 165.964844 C 77.519531 165.375 77.359375 164.523438 77.699219 163.757812 L 81.226562 155.816406 C 78.535156 151.441406 76.554688 146.664062 75.363281 141.667969 L 67.257812 138.546875 C 66.480469 138.246094 65.988281 137.535156 65.988281 136.699219 L 65.988281 124.101562 C 65.988281 123.265625 66.480469 122.550781 67.257812 122.25 L 75.367188 119.128906 C 76.554688 114.132812 78.535156 109.359375 81.226562 104.984375 L 77.699219 97.039062 C 77.359375 96.273438 77.519531 95.425781 78.109375 94.835938 L 87.015625 85.925781 C 87.605469 85.335938 88.457031 85.175781 89.21875 85.515625 L 97.164062 89.046875 C 101.539062 86.351562 106.308594 84.371094 111.304688 83.183594 L 114.425781 75.074219 C 114.726562 74.292969 115.4375 73.804688 116.273438 73.804688 L 128.867188 73.804688 C 129.703125 73.804688 130.417969 74.292969 130.714844 75.074219 Z M 63.621094 31.203125 C 79.601562 31.203125 93.996094 29.164062 104.351562 25.867188 C 113.648438 22.90625 119.402344 19.25 119.402344 15.605469 C 119.402344 11.957031 113.648438 8.300781 104.351562 5.34375 C 93.996094 2.046875 79.601562 0.0078125 63.621094 0.0078125 C 47.644531 0.0078125 33.25 2.046875 22.894531 5.34375 C 13.59375 8.300781 7.84375 11.957031 7.84375 15.605469 C 7.84375 19.25 13.597656 22.90625 22.894531 25.867188 C 33.25 29.160156 47.644531 31.203125 63.621094 31.203125 Z M 63.621094 113.816406 C 47.046875 113.816406 31.96875 111.65625 20.988281 108.160156 C 15.601562 106.445312 11.136719 104.351562 7.84375 101.957031 L 7.84375 130.019531 C 7.84375 133.667969 13.59375 137.320312 22.894531 140.28125 C 33.25 143.578125 47.644531 145.617188 63.621094 145.617188 C 65.046875 145.617188 66.460938 145.601562 67.859375 145.570312 L 64.980469 144.464844 C 61.753906 143.222656 59.652344 140.15625 59.652344 136.699219 L 59.652344 124.101562 C 59.652344 120.644531 61.753906 117.578125 64.980469 116.335938 L 70.09375 114.367188 C 70.160156 114.144531 70.230469 113.921875 70.300781 113.699219 C 68.109375 113.777344 65.878906 113.816406 63.621094 113.816406 Z M 23.050781 117.285156 C 27.257812 117.285156 30.667969 120.695312 30.667969 124.90625 C 30.667969 129.113281 27.257812 132.527344 23.050781 132.527344 C 18.84375 132.527344 15.433594 129.113281 15.433594 124.90625 C 15.433594 120.695312 18.84375 117.285156 23.050781 117.285156 Z M 106.257812 70.019531 C 95.277344 73.515625 80.199219 75.679688 63.621094 75.679688 C 47.046875 75.679688 31.96875 73.515625 20.988281 70.019531 C 15.601562 68.304688 11.136719 66.210938 7.84375 63.816406 L 7.84375 91.882812 C 7.84375 95.527344 13.59375 99.183594 22.894531 102.144531 C 33.25 105.441406 47.644531 107.480469 63.621094 107.480469 C 66.757812 107.480469 69.828125 107.402344 72.824219 107.25 C 73.234375 106.363281 73.671875 105.488281 74.132812 104.625 L 71.90625 99.613281 C 70.511719 96.46875 71.195312 92.785156 73.628906 90.351562 L 82.535156 81.445312 C 84.964844 79.011719 88.648438 78.328125 91.789062 79.722656 L 96.800781 81.949219 C 99.910156 80.292969 103.171875 78.9375 106.542969 77.910156 L 108.511719 72.796875 C 109.75 69.570312 112.816406 67.464844 116.273438 67.464844 L 119.402344 67.464844 L 119.402344 63.816406 C 116.109375 66.210938 111.644531 68.304688 106.257812 70.019531 Z M 23.050781 78.753906 C 27.257812 78.753906 30.667969 82.164062 30.667969 86.375 C 30.667969 90.582031 27.257812 93.996094 23.050781 93.996094 C 18.84375 93.996094 15.433594 90.582031 15.433594 86.375 C 15.433594 82.164062 18.84375 78.753906 23.050781 78.753906 Z M 119.402344 53.742188 C 119.402344 57.390625 113.648438 61.042969 104.351562 64.003906 C 93.996094 67.300781 79.601562 69.339844 63.621094 69.339844 C 47.644531 69.339844 33.25 67.300781 22.894531 64.003906 C 13.597656 61.042969 7.84375 57.390625 7.84375 53.742188 L 7.84375 25.679688 C 11.136719 28.074219 15.601562 30.167969 20.988281 31.882812 C 31.96875 35.378906 47.046875 37.539062 63.621094 37.539062 C 80.199219 37.539062 95.277344 35.378906 106.257812 31.882812 C 111.644531 30.167969 116.109375 28.074219 119.402344 25.679688 Z M 23.050781 40.222656 C 18.84375 40.222656 15.433594 43.636719 15.433594 47.84375 C 15.433594 52.050781 18.84375 55.464844 23.050781 55.464844 C 27.257812 55.464844 30.667969 52.050781 30.667969 47.84375 C 30.667969 43.636719 27.257812 40.222656 23.050781 40.222656 Z M 113.734375 138.074219 L 104.628906 130.398438 L 113.734375 122.722656 C 115.066406 121.601562 115.238281 119.613281 114.117188 118.277344 C 112.996094 116.945312 111.007812 116.773438 109.675781 117.894531 L 97.738281 127.957031 C 97.589844 128.078125 97.449219 128.214844 97.320312 128.367188 C 96.199219 129.703125 96.371094 131.691406 97.707031 132.8125 L 109.675781 142.902344 C 111.007812 144.023438 112.996094 143.851562 114.117188 142.519531 C 115.238281 141.1875 115.066406 139.195312 113.734375 138.074219 Z M 135.464844 142.902344 L 147.433594 132.8125 C 148.765625 131.691406 148.9375 129.703125 147.816406 128.367188 C 147.6875 128.214844 147.550781 128.078125 147.402344 127.957031 L 135.464844 117.894531 C 134.132812 116.773438 132.140625 116.945312 131.019531 118.277344 C 129.898438 119.613281 130.070312 121.601562 131.402344 122.722656 L 140.511719 130.398438 L 131.402344 138.074219 C 130.070312 139.195312 129.898438 141.1875 131.019531 142.519531 C 132.140625 143.851562 134.128906 144.023438 135.464844 142.902344 Z M 129.300781 143.292969 L 121.953125 115.871094 C 121.503906 114.179688 119.765625 113.175781 118.078125 113.628906 C 116.390625 114.078125 115.386719 115.816406 115.839844 117.503906 L 123.1875 144.929688 C 123.636719 146.617188 125.371094 147.621094 127.058594 147.167969 C 128.746094 146.71875 129.75 144.984375 129.300781 143.292969 Z M 122.570312 98.367188 C 104.882812 98.367188 90.546875 112.707031 90.546875 130.398438 C 90.546875 148.089844 104.882812 162.429688 122.570312 162.429688 C 140.257812 162.429688 154.589844 148.089844 154.589844 130.398438 C 154.589844 112.707031 140.253906 98.367188 122.570312 98.367188 Z M 122.570312 98.367188 " fill-opacity="1" fill-rule="evenodd"/></g></svg>